solid Default
  facet normal 0.000000e+00 0.000000e+00 -1.000000e+00
    outer loop
      vertex -2.695209e+01 -1.071522e+01 0.000000e+00
      vertex -5.000029e+01 1.075640e+01 0.000000e+00
      vertex -1.331931e+01 3.918554e+00 0.000000e+00
    endloop
  endfacet
  facet normal 0.000000e+00 0.000000e+00 -1.000000e+00
    outer loop
      vertex -1.331931e+01 3.918554e+00 0.000000e+00
      vertex -5.000029e+01 1.075640e+01 0.000000e+00
      vertex -1.251016e+01 5.099928e+01 0.000000e+00
    endloop
  endfacet
  facet normal 0.000000e+00 0.000000e+00 -1.000000e+00
    outer loop
      vertex -3.538044e+00 -3.252766e+01 0.000000e+00
      vertex 1.009473e+01 -1.789389e+01 0.000000e+00
      vertex 1.951016e+01 -5.399928e+01 0.000000e+00
    endloop
  endfacet
  facet normal 0.000000e+00 0.000000e+00 -1.000000e+00
    outer loop
      vertex 1.951016e+01 -5.399928e+01 0.000000e+00
      vertex 1.009473e+01 -1.789389e+01 0.000000e+00
      vertex 5.700029e+01 -1.375640e+01 0.000000e+00
    endloop
  endfacet
  facet normal 0.000000e+00 0.000000e+00 -1.000000e+00
    outer loop
      vertex -1.251016e+01 5.099928e+01 0.000000e+00
      vertex 5.700029e+01 -1.375640e+01 0.000000e+00
      vertex 3.500000e+00 -1.500000e+00 0.000000e+00
    endloop
  endfacet
  facet normal 0.000000e+00 0.000000e+00 -1.000000e+00
    outer loop
      vertex 1.009473e+01 -1.789389e+01 0.000000e+00
      vertex -1.331931e+01 3.918554e+00 0.000000e+00
      vertex 3.500000e+00 -1.500000e+00 0.000000e+00
    endloop
  endfacet
  facet normal 0.000000e+00 0.000000e+00 -1.000000e+00
    outer loop
      vertex 5.700029e+01 -1.375640e+01 0.000000e+00
      vertex 1.009473e+01 -1.789389e+01 0.000000e+00
      vertex 3.500000e+00 -1.500000e+00 0.000000e+00
    endloop
  endfacet
  facet normal 0.000000e+00 0.000000e+00 -1.000000e+00
    outer loop
      vertex -1.331931e+01 3.918554e+00 0.000000e+00
      vertex -1.251016e+01 5.099928e+01 0.000000e+00
      vertex 3.500000e+00 -1.500000e+00 0.000000e+00
    endloop
  endfacet
  facet normal 7.316889e-01 -6.816388e-01 0.000000e+00
    outer loop
      vertex -1.886735e+01 -2.036852e+00 5.408838e+00
      vertex -1.894283e+01 -2.117880e+00 6.250000e+00
      vertex -2.013570e+01 -3.398335e+00 2.000000e+00
    endloop
  endfacet
  facet normal 7.316889e-01 -6.816388e-01 0.000000e+00
    outer loop
      vertex -1.864604e+01 -1.799290e+00 4.625000e+00
      vertex -1.886735e+01 -2.036852e+00 5.408838e+00
      vertex -2.013570e+01 -3.398335e+00 2.000000e+00
    endloop
  endfacet
  facet normal 7.316889e-01 -6.816388e-01 0.000000e+00
    outer loop
      vertex -1.829398e+01 -1.421382e+00 3.951903e+00
      vertex -1.864604e+01 -1.799290e+00 4.625000e+00
      vertex -2.013570e+01 -3.398335e+00 2.000000e+00
    endloop
  endfacet
  facet normal 7.316889e-01 -6.816388e-01 0.000000e+00
    outer loop
      vertex -1.783517e+01 -9.288851e-01 3.435417e+00
      vertex -1.829398e+01 -1.421382e+00 3.951903e+00
      vertex -2.013570e+01 -3.398335e+00 2.000000e+00
    endloop
  endfacet
  facet normal 7.316889e-01 -6.816388e-01 0.000000e+00
    outer loop
      vertex -1.730087e+01 -3.553594e-01 3.110741e+00
      vertex -1.783517e+01 -9.288851e-01 3.435417e+00
      vertex -2.013570e+01 -3.398335e+00 2.000000e+00
    endloop
  endfacet
  facet normal 7.316889e-01 -6.816388e-01 0.000000e+00
    outer loop
      vertex -1.672751e+01 2.601093e-01 3.000000e+00
      vertex -1.730087e+01 -3.553594e-01 3.110741e+00
      vertex -2.013570e+01 -3.398335e+00 2.000000e+00
    endloop
  endfacet
  facet normal 7.316889e-01 -6.816388e-01 0.000000e+00
    outer loop
      vertex -1.331931e+01 3.918554e+00 9.500000e+00
      vertex -1.451218e+01 2.638098e+00 9.500000e+00
      vertex -1.451218e+01 2.638098e+00 6.250000e+00
    endloop
  endfacet
  facet normal 7.316889e-01 -6.816388e-01 0.000000e+00
    outer loop
      vertex -1.894283e+01 -2.117880e+00 6.250000e+00
      vertex -2.013570e+01 -3.398335e+00 9.500000e+00
      vertex -2.013570e+01 -3.398335e+00 2.000000e+00
    endloop
  endfacet
  facet normal 7.316889e-01 -6.816388e-01 0.000000e+00
    outer loop
      vertex -1.331931e+01 3.918554e+00 0.000000e+00
      vertex -1.672751e+01 2.601093e-01 3.000000e+00
      vertex -2.013570e+01 -3.398335e+00 2.000000e+00
    endloop
  endfacet
  facet normal 7.316889e-01 -6.816388e-01 0.000000e+00
    outer loop
      vertex -2.013570e+01 -3.398335e+00 2.000000e+00
      vertex -2.695209e+01 -1.071522e+01 2.000000e+00
      vertex -2.695209e+01 -1.071522e+01 0.000000e+00
    endloop
  endfacet
  facet normal 7.316889e-01 -6.816388e-01 0.000000e+00
    outer loop
      vertex -2.013570e+01 -3.398335e+00 2.000000e+00
      vertex -2.695209e+01 -1.071522e+01 0.000000e+00
      vertex -1.331931e+01 3.918554e+00 0.000000e+00
    endloop
  endfacet
  facet normal 7.316889e-01 -6.816388e-01 0.000000e+00
    outer loop
      vertex -1.458767e+01 2.557070e+00 5.408838e+00
      vertex -1.480898e+01 2.319508e+00 4.625000e+00
      vertex -1.331931e+01 3.918554e+00 2.000000e+00
    endloop
  endfacet
  facet normal 7.316889e-01 -6.816388e-01 0.000000e+00
    outer loop
      vertex -1.451218e+01 2.638098e+00 6.250000e+00
      vertex -1.458767e+01 2.557070e+00 5.408838e+00
      vertex -1.331931e+01 3.918554e+00 2.000000e+00
    endloop
  endfacet
  facet normal 7.316889e-01 -6.816388e-01 0.000000e+00
    outer loop
      vertex -1.331931e+01 3.918554e+00 9.500000e+00
      vertex -1.451218e+01 2.638098e+00 6.250000e+00
      vertex -1.331931e+01 3.918554e+00 2.000000e+00
    endloop
  endfacet
  facet normal 7.316889e-01 -6.816388e-01 0.000000e+00
    outer loop
      vertex -1.331931e+01 3.918554e+00 2.000000e+00
      vertex -1.480898e+01 2.319508e+00 4.625000e+00
      vertex -1.516103e+01 1.941602e+00 3.951903e+00
    endloop
  endfacet
  facet normal 7.316889e-01 -6.816388e-01 0.000000e+00
    outer loop
      vertex -1.331931e+01 3.918554e+00 2.000000e+00
      vertex -1.516103e+01 1.941602e+00 3.951903e+00
      vertex -1.561984e+01 1.449104e+00 3.435417e+00
    endloop
  endfacet
  facet normal 7.316889e-01 -6.816388e-01 0.000000e+00
    outer loop
      vertex -1.331931e+01 3.918554e+00 2.000000e+00
      vertex -1.561984e+01 1.449104e+00 3.435417e+00
      vertex -1.331931e+01 3.918554e+00 0.000000e+00
    endloop
  endfacet
  facet normal 7.316889e-01 -6.816388e-01 0.000000e+00
    outer loop
      vertex -1.331931e+01 3.918554e+00 0.000000e+00
      vertex -1.561984e+01 1.449104e+00 3.435417e+00
      vertex -1.615414e+01 8.755780e-01 3.110741e+00
    endloop
  endfacet
  facet normal 7.316889e-01 -6.816388e-01 0.000000e+00
    outer loop
      vertex -1.331931e+01 3.918554e+00 0.000000e+00
      vertex -1.615414e+01 8.755780e-01 3.110741e+00
      vertex -1.672751e+01 2.601093e-01 3.000000e+00
    endloop
  endfacet
  facet normal 7.316889e-01 -6.816388e-01 0.000000e+00
    outer loop
      vertex -1.894283e+01 -2.117880e+00 9.500000e+00
      vertex -2.013570e+01 -3.398335e+00 9.500000e+00
      vertex -1.894283e+01 -2.117880e+00 6.250000e+00
    endloop
  endfacet
  facet normal -6.816388e-01 -7.316889e-01 0.000000e+00
    outer loop
      vertex -5.000029e+01 1.075640e+01 0.000000e+00
      vertex -2.695209e+01 -1.071522e+01 2.000000e+00
      vertex -5.000029e+01 1.075640e+01 2.000000e+00
    endloop
  endfacet
  facet normal -6.816388e-01 -7.316889e-01 0.000000e+00
    outer loop
      vertex -5.000029e+01 1.075640e+01 0.000000e+00
      vertex -2.695209e+01 -1.071522e+01 0.000000e+00
      vertex -2.695209e+01 -1.071522e+01 2.000000e+00
    endloop
  endfacet
  facet normal -7.316889e-01 6.816388e-01 0.000000e+00
    outer loop
      vertex -1.387343e+01 4.953591e+01 2.000000e+00
      vertex -5.000029e+01 1.075640e+01 0.000000e+00
      vertex -5.000029e+01 1.075640e+01 2.000000e+00
    endloop
  endfacet
  facet normal -7.316889e-01 6.816388e-01 0.000000e+00
    outer loop
      vertex -1.387343e+01 4.953591e+01 2.000000e+00
      vertex -1.387343e+01 4.953591e+01 2.100000e+01
      vertex -1.251016e+01 5.099928e+01 2.100000e+01
    endloop
  endfacet
  facet normal -7.316889e-01 6.816388e-01 0.000000e+00
    outer loop
      vertex -1.251016e+01 5.099928e+01 0.000000e+00
      vertex -1.387343e+01 4.953591e+01 2.000000e+00
      vertex -1.251016e+01 5.099928e+01 2.100000e+01
    endloop
  endfacet
  facet normal -7.316889e-01 6.816388e-01 0.000000e+00
    outer loop
      vertex -1.251016e+01 5.099928e+01 0.000000e+00
      vertex -5.000029e+01 1.075640e+01 0.000000e+00
      vertex -1.387343e+01 4.953591e+01 2.000000e+00
    endloop
  endfacet
  facet normal 6.816388e-01 7.316889e-01 0.000000e+00
    outer loop
      vertex 5.700029e+01 -1.375640e+01 0.000000e+00
      vertex -1.251016e+01 5.099928e+01 0.000000e+00
      vertex -1.251016e+01 5.099928e+01 2.100000e+01
    endloop
  endfacet
  facet normal 6.816388e-01 7.316889e-01 0.000000e+00
    outer loop
      vertex 5.700029e+01 -1.375640e+01 0.000000e+00
      vertex -1.251016e+01 5.099928e+01 2.100000e+01
      vertex 5.700029e+01 -1.375640e+01 2.100000e+01
    endloop
  endfacet
  facet normal 7.316889e-01 -6.816388e-01 0.000000e+00
    outer loop
      vertex 5.563701e+01 -1.521977e+01 2.000000e+00
      vertex 5.700029e+01 -1.375640e+01 2.100000e+01
      vertex 5.563701e+01 -1.521977e+01 2.100000e+01
    endloop
  endfacet
  facet normal 7.316889e-01 -6.816388e-01 0.000000e+00
    outer loop
      vertex 5.700029e+01 -1.375640e+01 0.000000e+00
      vertex 5.700029e+01 -1.375640e+01 2.100000e+01
      vertex 5.563701e+01 -1.521977e+01 2.000000e+00
    endloop
  endfacet
  facet normal 7.316889e-01 -6.816388e-01 0.000000e+00
    outer loop
      vertex 1.951016e+01 -5.399928e+01 0.000000e+00
      vertex 5.563701e+01 -1.521977e+01 2.000000e+00
      vertex 1.951016e+01 -5.399928e+01 2.000000e+00
    endloop
  endfacet
  facet normal 7.316889e-01 -6.816388e-01 0.000000e+00
    outer loop
      vertex 1.951016e+01 -5.399928e+01 0.000000e+00
      vertex 5.700029e+01 -1.375640e+01 0.000000e+00
      vertex 5.563701e+01 -1.521977e+01 2.000000e+00
    endloop
  endfacet
  facet normal -6.816388e-01 -7.316889e-01 0.000000e+00
    outer loop
      vertex -3.538044e+00 -3.252766e+01 0.000000e+00
      vertex 1.951016e+01 -5.399928e+01 2.000000e+00
      vertex -3.538044e+00 -3.252766e+01 2.000000e+00
    endloop
  endfacet
  facet normal -6.816388e-01 -7.316889e-01 0.000000e+00
    outer loop
      vertex -3.538044e+00 -3.252766e+01 0.000000e+00
      vertex 1.951016e+01 -5.399928e+01 0.000000e+00
      vertex 1.951016e+01 -5.399928e+01 2.000000e+00
    endloop
  endfacet
  facet normal -7.316889e-01 6.816388e-01 -0.000000e+00
    outer loop
      vertex 4.471211e+00 -2.393032e+01 9.500000e+00
      vertex 4.471211e+00 -2.393032e+01 6.250000e+00
      vertex 3.278344e+00 -2.521078e+01 9.500000e+00
    endloop
  endfacet
  facet normal -7.316889e-01 6.816388e-01 0.000000e+00
    outer loop
      vertex 4.471211e+00 -2.393032e+01 6.250000e+00
      vertex 3.278344e+00 -2.521078e+01 2.000000e+00
      vertex 3.278344e+00 -2.521078e+01 9.500000e+00
    endloop
  endfacet
  facet normal -7.316889e-01 6.816388e-01 -0.000000e+00
    outer loop
      vertex 1.009473e+01 -1.789389e+01 2.000000e+00
      vertex 1.009473e+01 -1.789389e+01 0.000000e+00
      vertex 7.794200e+00 -2.036334e+01 3.435417e+00
    endloop
  endfacet
  facet normal -7.316889e-01 6.816388e-01 0.000000e+00
    outer loop
      vertex 8.253010e+00 -1.987084e+01 3.951903e+00
      vertex 1.009473e+01 -1.789389e+01 2.000000e+00
      vertex 7.794200e+00 -2.036334e+01 3.435417e+00
    endloop
  endfacet
  facet normal -7.316889e-01 6.816388e-01 0.000000e+00
    outer loop
      vertex 3.278344e+00 -2.521078e+01 2.000000e+00
      vertex -3.538044e+00 -3.252766e+01 0.000000e+00
      vertex -3.538044e+00 -3.252766e+01 2.000000e+00
    endloop
  endfacet
  facet normal -7.316889e-01 6.816388e-01 0.000000e+00
    outer loop
      vertex 3.278344e+00 -2.521078e+01 2.000000e+00
      vertex 1.009473e+01 -1.789389e+01 0.000000e+00
      vertex -3.538044e+00 -3.252766e+01 0.000000e+00
    endloop
  endfacet
  facet normal -7.316889e-01 6.816388e-01 0.000000e+00
    outer loop
      vertex 1.009473e+01 -1.789389e+01 2.000000e+00
      vertex 8.253010e+00 -1.987084e+01 3.951903e+00
      vertex 8.605066e+00 -1.949293e+01 4.625000e+00
    endloop
  endfacet
  facet normal -7.316889e-01 6.816388e-01 0.000000e+00
    outer loop
      vertex 7.794200e+00 -2.036334e+01 3.435417e+00
      vertex 1.009473e+01 -1.789389e+01 0.000000e+00
      vertex 7.259906e+00 -2.093686e+01 3.110741e+00
    endloop
  endfacet
  facet normal -7.316889e-01 6.816388e-01 0.000000e+00
    outer loop
      vertex 1.009473e+01 -1.789389e+01 2.000000e+00
      vertex 8.605066e+00 -1.949293e+01 4.625000e+00
      vertex 8.826378e+00 -1.925537e+01 5.408838e+00
    endloop
  endfacet
  facet normal -7.316889e-01 6.816388e-01 0.000000e+00
    outer loop
      vertex 7.259906e+00 -2.093686e+01 3.110741e+00
      vertex 1.009473e+01 -1.789389e+01 0.000000e+00
      vertex 6.686537e+00 -2.155233e+01 3.000000e+00
    endloop
  endfacet
  facet normal -7.316889e-01 6.816388e-01 0.000000e+00
    outer loop
      vertex 1.009473e+01 -1.789389e+01 2.000000e+00
      vertex 8.826378e+00 -1.925537e+01 5.408838e+00
      vertex 8.901863e+00 -1.917434e+01 6.250000e+00
    endloop
  endfacet
  facet normal -7.316889e-01 6.816388e-01 0.000000e+00
    outer loop
      vertex 1.009473e+01 -1.789389e+01 2.000000e+00
      vertex 8.901863e+00 -1.917434e+01 6.250000e+00
      vertex 1.009473e+01 -1.789389e+01 9.500000e+00
    endloop
  endfacet
  facet normal -7.316889e-01 6.816388e-01 0.000000e+00
    outer loop
      vertex 1.009473e+01 -1.789389e+01 9.500000e+00
      vertex 8.901863e+00 -1.917434e+01 6.250000e+00
      vertex 8.901863e+00 -1.917434e+01 9.500000e+00
    endloop
  endfacet
  facet normal -7.316889e-01 6.816388e-01 0.000000e+00
    outer loop
      vertex 5.120066e+00 -2.323382e+01 3.951903e+00
      vertex 5.578874e+00 -2.274133e+01 3.435417e+00
      vertex 3.278344e+00 -2.521078e+01 2.000000e+00
    endloop
  endfacet
  facet normal -7.316889e-01 6.816388e-01 0.000000e+00
    outer loop
      vertex 5.578874e+00 -2.274133e+01 3.435417e+00
      vertex 6.113169e+00 -2.216780e+01 3.110741e+00
      vertex 3.278344e+00 -2.521078e+01 2.000000e+00
    endloop
  endfacet
  facet normal -7.316889e-01 6.816388e-01 0.000000e+00
    outer loop
      vertex 6.113169e+00 -2.216780e+01 3.110741e+00
      vertex 6.686537e+00 -2.155233e+01 3.000000e+00
      vertex 3.278344e+00 -2.521078e+01 2.000000e+00
    endloop
  endfacet
  facet normal -7.316889e-01 6.816388e-01 0.000000e+00
    outer loop
      vertex 6.686537e+00 -2.155233e+01 3.000000e+00
      vertex 1.009473e+01 -1.789389e+01 0.000000e+00
      vertex 3.278344e+00 -2.521078e+01 2.000000e+00
    endloop
  endfacet
  facet normal -7.316889e-01 6.816388e-01 0.000000e+00
    outer loop
      vertex 5.120066e+00 -2.323382e+01 3.951903e+00
      vertex 3.278344e+00 -2.521078e+01 2.000000e+00
      vertex 4.768009e+00 -2.361173e+01 4.625000e+00
    endloop
  endfacet
  facet normal -7.316889e-01 6.816388e-01 0.000000e+00
    outer loop
      vertex 4.768009e+00 -2.361173e+01 4.625000e+00
      vertex 3.278344e+00 -2.521078e+01 2.000000e+00
      vertex 4.546697e+00 -2.384929e+01 5.408838e+00
    endloop
  endfacet
  facet normal -7.316889e-01 6.816388e-01 0.000000e+00
    outer loop
      vertex 4.546697e+00 -2.384929e+01 5.408838e+00
      vertex 3.278344e+00 -2.521078e+01 2.000000e+00
      vertex 4.471211e+00 -2.393032e+01 6.250000e+00
    endloop
  endfacet
  facet normal -6.816388e-01 -7.316889e-01 0.000000e+00
    outer loop
      vertex 1.009473e+01 -1.789389e+01 2.000000e+00
      vertex -1.331931e+01 3.918554e+00 2.000000e+00
      vertex -1.331931e+01 3.918554e+00 0.000000e+00
    endloop
  endfacet
  facet normal -6.816388e-01 -7.316889e-01 0.000000e+00
    outer loop
      vertex 1.009473e+01 -1.789389e+01 2.000000e+00
      vertex -1.331931e+01 3.918554e+00 0.000000e+00
      vertex 1.009473e+01 -1.789389e+01 0.000000e+00
    endloop
  endfacet
  facet normal 6.816388e-01 7.316889e-01 0.000000e+00
    outer loop
      vertex -1.331931e+01 3.918554e+00 2.000000e+00
      vertex -1.844113e+01 8.690025e+00 2.000000e+00
      vertex -1.844113e+01 8.690025e+00 9.500000e+00
    endloop
  endfacet
  facet normal 6.816388e-01 7.316889e-01 0.000000e+00
    outer loop
      vertex -1.331931e+01 3.918554e+00 2.000000e+00
      vertex -1.844113e+01 8.690025e+00 9.500000e+00
      vertex -1.331931e+01 3.918554e+00 9.500000e+00
    endloop
  endfacet
  facet normal 0.000000e+00 0.000000e+00 1.000000e+00
    outer loop
      vertex -1.451218e+01 2.638098e+00 9.500000e+00
      vertex -1.844113e+01 8.690025e+00 9.500000e+00
      vertex -1.963400e+01 7.409569e+00 9.500000e+00
    endloop
  endfacet
  facet normal 0.000000e+00 0.000000e+00 1.000000e+00
    outer loop
      vertex -1.331931e+01 3.918554e+00 9.500000e+00
      vertex -1.844113e+01 8.690025e+00 9.500000e+00
      vertex -1.451218e+01 2.638098e+00 9.500000e+00
    endloop
  endfacet
  facet normal -6.816388e-01 -7.316889e-01 0.000000e+00
    outer loop
      vertex -1.451218e+01 2.638098e+00 6.250000e+00
      vertex -1.963400e+01 7.409569e+00 9.500000e+00
      vertex -1.963400e+01 7.409569e+00 6.250000e+00
    endloop
  endfacet
  facet normal -6.816388e-01 -7.316889e-01 0.000000e+00
    outer loop
      vertex -1.451218e+01 2.638098e+00 6.250000e+00
      vertex -1.451218e+01 2.638098e+00 9.500000e+00
      vertex -1.963400e+01 7.409569e+00 9.500000e+00
    endloop
  endfacet
  facet normal -5.407805e-01 -5.804880e-01 6.087611e-01
    outer loop
      vertex -2.028286e+01 6.713073e+00 3.951903e+00
      vertex -1.516103e+01 1.941602e+00 3.951903e+00
      vertex -1.480898e+01 2.319508e+00 4.625000e+00
    endloop
  endfacet
  facet normal -6.297520e-01 -6.759923e-01 3.826835e-01
    outer loop
      vertex -1.970949e+01 7.328542e+00 5.408838e+00
      vertex -1.993080e+01 7.090980e+00 4.625000e+00
      vertex -1.458767e+01 2.557070e+00 5.408838e+00
    endloop
  endfacet
  facet normal -6.297520e-01 -6.759923e-01 3.826835e-01
    outer loop
      vertex -1.993080e+01 7.090980e+00 4.625000e+00
      vertex -1.480898e+01 2.319508e+00 4.625000e+00
      vertex -1.458767e+01 2.557070e+00 5.408838e+00
    endloop
  endfacet
  facet normal 6.758073e-01 7.254292e-01 1.305258e-01
    outer loop
      vertex -2.406465e+01 2.653592e+00 6.250000e+00
      vertex -1.894283e+01 -2.117880e+00 6.250000e+00
      vertex -1.886735e+01 -2.036852e+00 5.408838e+00
    endloop
  endfacet
  facet normal -6.758073e-01 -7.254292e-01 1.305258e-01
    outer loop
      vertex -1.963400e+01 7.409569e+00 6.250000e+00
      vertex -1.970949e+01 7.328542e+00 5.408838e+00
      vertex -1.451218e+01 2.638098e+00 6.250000e+00
    endloop
  endfacet
  facet normal 6.758073e-01 7.254292e-01 1.305258e-01
    outer loop
      vertex -2.398917e+01 2.734620e+00 5.408838e+00
      vertex -2.406465e+01 2.653592e+00 6.250000e+00
      vertex -1.886735e+01 -2.036852e+00 5.408838e+00
    endloop
  endfacet
  facet normal -6.758073e-01 -7.254292e-01 1.305258e-01
    outer loop
      vertex -1.970949e+01 7.328542e+00 5.408838e+00
      vertex -1.458767e+01 2.557070e+00 5.408838e+00
      vertex -1.451218e+01 2.638098e+00 6.250000e+00
    endloop
  endfacet
  facet normal 6.297520e-01 6.759923e-01 3.826835e-01
    outer loop
      vertex -2.376786e+01 2.972182e+00 4.625000e+00
      vertex -2.398917e+01 2.734620e+00 5.408838e+00
      vertex -1.864604e+01 -1.799290e+00 4.625000e+00
    endloop
  endfacet
  facet normal 6.297520e-01 6.759923e-01 3.826835e-01
    outer loop
      vertex -2.398917e+01 2.734620e+00 5.408838e+00
      vertex -1.886735e+01 -2.036852e+00 5.408838e+00
      vertex -1.864604e+01 -1.799290e+00 4.625000e+00
    endloop
  endfacet
  facet normal 5.407801e-01 5.804875e-01 6.087618e-01
    outer loop
      vertex -2.341580e+01 3.350089e+00 3.951903e+00
      vertex -2.376786e+01 2.972182e+00 4.625000e+00
      vertex -1.829398e+01 -1.421382e+00 3.951903e+00
    endloop
  endfacet
  facet normal 5.407801e-01 5.804875e-01 6.087618e-01
    outer loop
      vertex -2.376786e+01 2.972182e+00 4.625000e+00
      vertex -1.864604e+01 -1.799290e+00 4.625000e+00
      vertex -1.829398e+01 -1.421382e+00 3.951903e+00
    endloop
  endfacet
  facet normal 4.149555e-01 4.454241e-01 7.933533e-01
    outer loop
      vertex -2.295699e+01 3.842586e+00 3.435417e+00
      vertex -2.341580e+01 3.350089e+00 3.951903e+00
      vertex -1.783517e+01 -9.288851e-01 3.435417e+00
    endloop
  endfacet
  facet normal 4.149555e-01 4.454241e-01 7.933533e-01
    outer loop
      vertex -2.341580e+01 3.350089e+00 3.951903e+00
      vertex -1.829398e+01 -1.421382e+00 3.951903e+00
      vertex -1.783517e+01 -9.288851e-01 3.435417e+00
    endloop
  endfacet
  facet normal 2.608517e-01 2.800051e-01 9.238796e-01
    outer loop
      vertex -2.242270e+01 4.416112e+00 3.110741e+00
      vertex -2.295699e+01 3.842586e+00 3.435417e+00
      vertex -1.730087e+01 -3.553594e-01 3.110741e+00
    endloop
  endfacet
  facet normal 2.608517e-01 2.800051e-01 9.238796e-01
    outer loop
      vertex -2.295699e+01 3.842586e+00 3.435417e+00
      vertex -1.783517e+01 -9.288851e-01 3.435417e+00
      vertex -1.730087e+01 -3.553594e-01 3.110741e+00
    endloop
  endfacet
  facet normal 8.897178e-02 9.550463e-02 9.914448e-01
    outer loop
      vertex -2.242270e+01 4.416112e+00 3.110741e+00
      vertex -1.730087e+01 -3.553594e-01 3.110741e+00
      vertex -2.184933e+01 5.031581e+00 3.000000e+00
    endloop
  endfacet
  facet normal 8.897178e-02 9.550463e-02 9.914448e-01
    outer loop
      vertex -2.184933e+01 5.031581e+00 3.000000e+00
      vertex -1.730087e+01 -3.553594e-01 3.110741e+00
      vertex -1.672751e+01 2.601093e-01 3.000000e+00
    endloop
  endfacet
  facet normal -8.897178e-02 -9.550463e-02 9.914448e-01
    outer loop
      vertex -2.127596e+01 5.647049e+00 3.110741e+00
      vertex -2.184933e+01 5.031581e+00 3.000000e+00
      vertex -1.615414e+01 8.755780e-01 3.110741e+00
    endloop
  endfacet
  facet normal -8.897178e-02 -9.550463e-02 9.914448e-01
    outer loop
      vertex -2.184933e+01 5.031581e+00 3.000000e+00
      vertex -1.672751e+01 2.601093e-01 3.000000e+00
      vertex -1.615414e+01 8.755780e-01 3.110741e+00
    endloop
  endfacet
  facet normal -2.608517e-01 -2.800051e-01 9.238796e-01
    outer loop
      vertex -2.074167e+01 6.220575e+00 3.435417e+00
      vertex -2.127596e+01 5.647049e+00 3.110741e+00
      vertex -1.561984e+01 1.449104e+00 3.435417e+00
    endloop
  endfacet
  facet normal -2.608517e-01 -2.800051e-01 9.238796e-01
    outer loop
      vertex -2.127596e+01 5.647049e+00 3.110741e+00
      vertex -1.615414e+01 8.755780e-01 3.110741e+00
      vertex -1.561984e+01 1.449104e+00 3.435417e+00
    endloop
  endfacet
  facet normal -4.149551e-01 -4.454237e-01 7.933536e-01
    outer loop
      vertex -2.074167e+01 6.220575e+00 3.435417e+00
      vertex -1.561984e+01 1.449104e+00 3.435417e+00
      vertex -2.028286e+01 6.713073e+00 3.951903e+00
    endloop
  endfacet
  facet normal -4.149551e-01 -4.454237e-01 7.933536e-01
    outer loop
      vertex -2.028286e+01 6.713073e+00 3.951903e+00
      vertex -1.561984e+01 1.449104e+00 3.435417e+00
      vertex -1.516103e+01 1.941602e+00 3.951903e+00
    endloop
  endfacet
  facet normal -5.407805e-01 -5.804880e-01 6.087611e-01
    outer loop
      vertex -1.993080e+01 7.090980e+00 4.625000e+00
      vertex -2.028286e+01 6.713073e+00 3.951903e+00
      vertex -1.480898e+01 2.319508e+00 4.625000e+00
    endloop
  endfacet
  facet normal 6.816388e-01 7.316889e-01 0.000000e+00
    outer loop
      vertex -1.894283e+01 -2.117880e+00 6.250000e+00
      vertex -2.406465e+01 2.653592e+00 6.250000e+00
      vertex -2.406465e+01 2.653592e+00 9.500000e+00
    endloop
  endfacet
  facet normal 6.816388e-01 7.316889e-01 0.000000e+00
    outer loop
      vertex -1.894283e+01 -2.117880e+00 9.500000e+00
      vertex -1.894283e+01 -2.117880e+00 6.250000e+00
      vertex -2.406465e+01 2.653592e+00 9.500000e+00
    endloop
  endfacet
  facet normal 0.000000e+00 0.000000e+00 1.000000e+00
    outer loop
      vertex -1.894283e+01 -2.117880e+00 9.500000e+00
      vertex -2.525752e+01 1.373136e+00 9.500000e+00
      vertex -2.013570e+01 -3.398335e+00 9.500000e+00
    endloop
  endfacet
  facet normal 0.000000e+00 0.000000e+00 1.000000e+00
    outer loop
      vertex -1.894283e+01 -2.117880e+00 9.500000e+00
      vertex -2.406465e+01 2.653592e+00 9.500000e+00
      vertex -2.525752e+01 1.373136e+00 9.500000e+00
    endloop
  endfacet
  facet normal -6.816388e-01 -7.316889e-01 0.000000e+00
    outer loop
      vertex -2.525752e+01 1.373136e+00 2.000000e+00
      vertex -2.013570e+01 -3.398335e+00 2.000000e+00
      vertex -2.013570e+01 -3.398335e+00 9.500000e+00
    endloop
  endfacet
  facet normal -6.816388e-01 -7.316889e-01 0.000000e+00
    outer loop
      vertex -2.525752e+01 1.373136e+00 2.000000e+00
      vertex -2.013570e+01 -3.398335e+00 9.500000e+00
      vertex -2.525752e+01 1.373136e+00 9.500000e+00
    endloop
  endfacet
  facet normal 0.000000e+00 0.000000e+00 1.000000e+00
    outer loop
      vertex -2.525752e+01 1.373136e+00 2.000000e+00
      vertex -5.000029e+01 1.075640e+01 2.000000e+00
      vertex -2.695209e+01 -1.071522e+01 2.000000e+00
    endloop
  endfacet
  facet normal 0.000000e+00 0.000000e+00 1.000000e+00
    outer loop
      vertex -2.013570e+01 -3.398335e+00 2.000000e+00
      vertex -2.525752e+01 1.373136e+00 2.000000e+00
      vertex -2.695209e+01 -1.071522e+01 2.000000e+00
    endloop
  endfacet
  facet normal 0.000000e+00 0.000000e+00 1.000000e+00
    outer loop
      vertex -1.844113e+01 8.690025e+00 2.000000e+00
      vertex -5.000029e+01 1.075640e+01 2.000000e+00
      vertex -2.525752e+01 1.373136e+00 2.000000e+00
    endloop
  endfacet
  facet normal 0.000000e+00 0.000000e+00 1.000000e+00
    outer loop
      vertex -1.387343e+01 4.953591e+01 2.000000e+00
      vertex -5.000029e+01 1.075640e+01 2.000000e+00
      vertex -1.844113e+01 8.690025e+00 2.000000e+00
    endloop
  endfacet
  facet normal 0.000000e+00 0.000000e+00 1.000000e+00
    outer loop
      vertex 8.400166e+00 -2.998225e+01 2.000000e+00
      vertex 3.278344e+00 -2.521078e+01 2.000000e+00
      vertex -3.538044e+00 -3.252766e+01 2.000000e+00
    endloop
  endfacet
  facet normal 0.000000e+00 0.000000e+00 1.000000e+00
    outer loop
      vertex 1.564437e+01 1.520372e+01 2.000000e+00
      vertex -1.844113e+01 8.690025e+00 2.000000e+00
      vertex -1.331931e+01 3.918554e+00 2.000000e+00
    endloop
  endfacet
  facet normal 0.000000e+00 0.000000e+00 1.000000e+00
    outer loop
      vertex 1.564437e+01 1.520372e+01 2.000000e+00
      vertex -1.387343e+01 4.953591e+01 2.000000e+00
      vertex -1.844113e+01 8.690025e+00 2.000000e+00
    endloop
  endfacet
  facet normal 0.000000e+00 0.000000e+00 1.000000e+00
    outer loop
      vertex 1.951016e+01 -5.399928e+01 2.000000e+00
      vertex 1.521655e+01 -2.266536e+01 2.000000e+00
      vertex 8.400166e+00 -2.998225e+01 2.000000e+00
    endloop
  endfacet
  facet normal 0.000000e+00 0.000000e+00 1.000000e+00
    outer loop
      vertex 1.951016e+01 -5.399928e+01 2.000000e+00
      vertex 8.400166e+00 -2.998225e+01 2.000000e+00
      vertex -3.538044e+00 -3.252766e+01 2.000000e+00
    endloop
  endfacet
  facet normal 0.000000e+00 0.000000e+00 1.000000e+00
    outer loop
      vertex 1.905257e+01 1.886216e+01 2.000000e+00
      vertex -1.387343e+01 4.953591e+01 2.000000e+00
      vertex 1.564437e+01 1.520372e+01 2.000000e+00
    endloop
  endfacet
  facet normal 0.000000e+00 0.000000e+00 1.000000e+00
    outer loop
      vertex 1.930282e+01 1.179552e+01 2.000000e+00
      vertex 1.009473e+01 -1.789389e+01 2.000000e+00
      vertex 1.521655e+01 -2.266536e+01 2.000000e+00
    endloop
  endfacet
  facet normal 0.000000e+00 0.000000e+00 1.000000e+00
    outer loop
      vertex 5.563701e+01 -1.521977e+01 2.000000e+00
      vertex 2.271101e+01 1.545397e+01 2.000000e+00
      vertex 1.930282e+01 1.179552e+01 2.000000e+00
    endloop
  endfacet
  facet normal 0.000000e+00 0.000000e+00 1.000000e+00
    outer loop
      vertex 5.563701e+01 -1.521977e+01 2.000000e+00
      vertex 1.521655e+01 -2.266536e+01 2.000000e+00
      vertex 1.951016e+01 -5.399928e+01 2.000000e+00
    endloop
  endfacet
  facet normal 0.000000e+00 0.000000e+00 1.000000e+00
    outer loop
      vertex 5.563701e+01 -1.521977e+01 2.000000e+00
      vertex 1.930282e+01 1.179552e+01 2.000000e+00
      vertex 1.521655e+01 -2.266536e+01 2.000000e+00
    endloop
  endfacet
  facet normal 0.000000e+00 0.000000e+00 1.000000e+00
    outer loop
      vertex 2.818361e+00 -2.231689e+00 2.000000e+00
      vertex 1.930282e+01 1.179552e+01 2.000000e+00
      vertex 1.564437e+01 1.520372e+01 2.000000e+00
    endloop
  endfacet
  facet normal 0.000000e+00 0.000000e+00 1.000000e+00
    outer loop
      vertex 2.818361e+00 -2.231689e+00 2.000000e+00
      vertex -1.331931e+01 3.918554e+00 2.000000e+00
      vertex 1.009473e+01 -1.789389e+01 2.000000e+00
    endloop
  endfacet
  facet normal 0.000000e+00 0.000000e+00 1.000000e+00
    outer loop
      vertex 2.818361e+00 -2.231689e+00 2.000000e+00
      vertex 1.564437e+01 1.520372e+01 2.000000e+00
      vertex -1.331931e+01 3.918554e+00 2.000000e+00
    endloop
  endfacet
  facet normal 0.000000e+00 0.000000e+00 1.000000e+00
    outer loop
      vertex 2.818361e+00 -2.231689e+00 2.000000e+00
      vertex 1.009473e+01 -1.789389e+01 2.000000e+00
      vertex 1.930282e+01 1.179552e+01 2.000000e+00
    endloop
  endfacet
  facet normal -6.816388e-01 -7.316889e-01 0.000000e+00
    outer loop
      vertex 1.905257e+01 1.886216e+01 7.000000e+00
      vertex -1.387343e+01 4.953591e+01 2.000000e+00
      vertex 1.905257e+01 1.886216e+01 2.000000e+00
    endloop
  endfacet
  facet normal -6.816388e-01 -7.316889e-01 0.000000e+00
    outer loop
      vertex 1.905257e+01 1.886216e+01 7.000000e+00
      vertex -1.387343e+01 4.953591e+01 2.100000e+01
      vertex -1.387343e+01 4.953591e+01 2.000000e+00
    endloop
  endfacet
  facet normal -6.816388e-01 -7.316889e-01 0.000000e+00
    outer loop
      vertex 5.563701e+01 -1.521977e+01 2.000000e+00
      vertex 2.271101e+01 1.545397e+01 7.000000e+00
      vertex 2.271101e+01 1.545397e+01 2.000000e+00
    endloop
  endfacet
  facet normal -6.816388e-01 -7.316889e-01 0.000000e+00
    outer loop
      vertex 5.563701e+01 -1.521977e+01 2.100000e+01
      vertex 2.271101e+01 1.545397e+01 7.000000e+00
      vertex 5.563701e+01 -1.521977e+01 2.000000e+00
    endloop
  endfacet
  facet normal -6.816388e-01 -7.316889e-01 0.000000e+00
    outer loop
      vertex 2.088179e+01 1.715807e+01 1.150000e+01
      vertex 5.563701e+01 -1.521977e+01 2.100000e+01
      vertex -1.387343e+01 4.953591e+01 2.100000e+01
    endloop
  endfacet
  facet normal -6.816388e-01 -7.316889e-01 0.000000e+00
    outer loop
      vertex 2.088179e+01 1.715807e+01 1.150000e+01
      vertex 1.905257e+01 1.886216e+01 7.000000e+00
      vertex 2.271101e+01 1.545397e+01 7.000000e+00
    endloop
  endfacet
  facet normal -6.816388e-01 -7.316889e-01 0.000000e+00
    outer loop
      vertex 2.088179e+01 1.715807e+01 1.150000e+01
      vertex -1.387343e+01 4.953591e+01 2.100000e+01
      vertex 1.905257e+01 1.886216e+01 7.000000e+00
    endloop
  endfacet
  facet normal -6.816388e-01 -7.316889e-01 0.000000e+00
    outer loop
      vertex 2.088179e+01 1.715807e+01 1.150000e+01
      vertex 2.271101e+01 1.545397e+01 7.000000e+00
      vertex 5.563701e+01 -1.521977e+01 2.100000e+01
    endloop
  endfacet
  facet normal 0.000000e+00 0.000000e+00 1.000000e+00
    outer loop
      vertex -1.387343e+01 4.953591e+01 2.100000e+01
      vertex 5.700029e+01 -1.375640e+01 2.100000e+01
      vertex -1.251016e+01 5.099928e+01 2.100000e+01
    endloop
  endfacet
  facet normal 0.000000e+00 0.000000e+00 1.000000e+00
    outer loop
      vertex -1.387343e+01 4.953591e+01 2.100000e+01
      vertex 5.563701e+01 -1.521977e+01 2.100000e+01
      vertex 5.700029e+01 -1.375640e+01 2.100000e+01
    endloop
  endfacet
  facet normal -6.816388e-01 -7.316889e-01 0.000000e+00
    outer loop
      vertex 3.278344e+00 -2.521078e+01 2.000000e+00
      vertex 8.400166e+00 -2.998225e+01 2.000000e+00
      vertex 8.400166e+00 -2.998225e+01 9.500000e+00
    endloop
  endfacet
  facet normal -6.816388e-01 -7.316889e-01 0.000000e+00
    outer loop
      vertex 3.278344e+00 -2.521078e+01 2.000000e+00
      vertex 8.400166e+00 -2.998225e+01 9.500000e+00
      vertex 3.278344e+00 -2.521078e+01 9.500000e+00
    endloop
  endfacet
  facet normal 0.000000e+00 0.000000e+00 1.000000e+00
    outer loop
      vertex 8.400166e+00 -2.998225e+01 9.500000e+00
      vertex 4.471211e+00 -2.393032e+01 9.500000e+00
      vertex 3.278344e+00 -2.521078e+01 9.500000e+00
    endloop
  endfacet
  facet normal 0.000000e+00 0.000000e+00 1.000000e+00
    outer loop
      vertex 9.593034e+00 -2.870179e+01 9.500000e+00
      vertex 4.471211e+00 -2.393032e+01 9.500000e+00
      vertex 8.400166e+00 -2.998225e+01 9.500000e+00
    endloop
  endfacet
  facet normal 6.816388e-01 7.316889e-01 0.000000e+00
    outer loop
      vertex 9.593034e+00 -2.870179e+01 6.250000e+00
      vertex 4.471211e+00 -2.393032e+01 6.250000e+00
      vertex 4.471211e+00 -2.393032e+01 9.500000e+00
    endloop
  endfacet
  facet normal 6.816388e-01 7.316889e-01 0.000000e+00
    outer loop
      vertex 9.593034e+00 -2.870179e+01 9.500000e+00
      vertex 9.593034e+00 -2.870179e+01 6.250000e+00
      vertex 4.471211e+00 -2.393032e+01 9.500000e+00
    endloop
  endfacet
  facet normal -5.407805e-01 -5.804880e-01 6.087611e-01
    outer loop
      vertex 8.605066e+00 -1.949293e+01 4.625000e+00
      vertex 1.337483e+01 -2.464231e+01 3.951903e+00
      vertex 1.372689e+01 -2.426440e+01 4.625000e+00
    endloop
  endfacet
  facet normal -6.297520e-01 -6.759923e-01 3.826835e-01
    outer loop
      vertex 8.605066e+00 -1.949293e+01 4.625000e+00
      vertex 1.372689e+01 -2.426440e+01 4.625000e+00
      vertex 8.826378e+00 -1.925537e+01 5.408838e+00
    endloop
  endfacet
  facet normal -6.297520e-01 -6.759923e-01 3.826835e-01
    outer loop
      vertex 8.826378e+00 -1.925537e+01 5.408838e+00
      vertex 1.372689e+01 -2.426440e+01 4.625000e+00
      vertex 1.394820e+01 -2.402684e+01 5.408838e+00
    endloop
  endfacet
  facet normal -6.758073e-01 -7.254292e-01 1.305258e-01
    outer loop
      vertex 8.826378e+00 -1.925537e+01 5.408838e+00
      vertex 1.394820e+01 -2.402684e+01 5.408838e+00
      vertex 8.901863e+00 -1.917434e+01 6.250000e+00
    endloop
  endfacet
  facet normal 6.758073e-01 7.254292e-01 1.305258e-01
    outer loop
      vertex 4.546697e+00 -2.384929e+01 5.408838e+00
      vertex 4.471211e+00 -2.393032e+01 6.250000e+00
      vertex 9.668519e+00 -2.862076e+01 5.408838e+00
    endloop
  endfacet
  facet normal 6.758073e-01 7.254292e-01 1.305258e-01
    outer loop
      vertex 4.471211e+00 -2.393032e+01 6.250000e+00
      vertex 9.593034e+00 -2.870179e+01 6.250000e+00
      vertex 9.668519e+00 -2.862076e+01 5.408838e+00
    endloop
  endfacet
  facet normal -6.758073e-01 -7.254292e-01 1.305258e-01
    outer loop
      vertex 8.901863e+00 -1.917434e+01 6.250000e+00
      vertex 1.394820e+01 -2.402684e+01 5.408838e+00
      vertex 1.402369e+01 -2.394581e+01 6.250000e+00
    endloop
  endfacet
  facet normal 6.297520e-01 6.759923e-01 3.826835e-01
    outer loop
      vertex 4.768009e+00 -2.361173e+01 4.625000e+00
      vertex 4.546697e+00 -2.384929e+01 5.408838e+00
      vertex 9.889831e+00 -2.838320e+01 4.625000e+00
    endloop
  endfacet
  facet normal 6.297520e-01 6.759923e-01 3.826835e-01
    outer loop
      vertex 4.546697e+00 -2.384929e+01 5.408838e+00
      vertex 9.668519e+00 -2.862076e+01 5.408838e+00
      vertex 9.889831e+00 -2.838320e+01 4.625000e+00
    endloop
  endfacet
  facet normal 5.407801e-01 5.804875e-01 6.087618e-01
    outer loop
      vertex 5.120066e+00 -2.323382e+01 3.951903e+00
      vertex 4.768009e+00 -2.361173e+01 4.625000e+00
      vertex 1.024189e+01 -2.800529e+01 3.951903e+00
    endloop
  endfacet
  facet normal 5.407801e-01 5.804875e-01 6.087618e-01
    outer loop
      vertex 4.768009e+00 -2.361173e+01 4.625000e+00
      vertex 9.889831e+00 -2.838320e+01 4.625000e+00
      vertex 1.024189e+01 -2.800529e+01 3.951903e+00
    endloop
  endfacet
  facet normal 4.149555e-01 4.454241e-01 7.933533e-01
    outer loop
      vertex 5.578874e+00 -2.274133e+01 3.435417e+00
      vertex 5.120066e+00 -2.323382e+01 3.951903e+00
      vertex 1.070070e+01 -2.751280e+01 3.435417e+00
    endloop
  endfacet
  facet normal 4.149555e-01 4.454241e-01 7.933533e-01
    outer loop
      vertex 5.120066e+00 -2.323382e+01 3.951903e+00
      vertex 1.024189e+01 -2.800529e+01 3.951903e+00
      vertex 1.070070e+01 -2.751280e+01 3.435417e+00
    endloop
  endfacet
  facet normal 2.608517e-01 2.800051e-01 9.238796e-01
    outer loop
      vertex 6.113169e+00 -2.216780e+01 3.110741e+00
      vertex 5.578874e+00 -2.274133e+01 3.435417e+00
      vertex 1.123499e+01 -2.693927e+01 3.110741e+00
    endloop
  endfacet
  facet normal 2.608517e-01 2.800051e-01 9.238796e-01
    outer loop
      vertex 5.578874e+00 -2.274133e+01 3.435417e+00
      vertex 1.070070e+01 -2.751280e+01 3.435417e+00
      vertex 1.123499e+01 -2.693927e+01 3.110741e+00
    endloop
  endfacet
  facet normal 8.897178e-02 9.550463e-02 9.914448e-01
    outer loop
      vertex 6.686537e+00 -2.155233e+01 3.000000e+00
      vertex 6.113169e+00 -2.216780e+01 3.110741e+00
      vertex 1.180836e+01 -2.632380e+01 3.000000e+00
    endloop
  endfacet
  facet normal 8.897178e-02 9.550463e-02 9.914448e-01
    outer loop
      vertex 6.113169e+00 -2.216780e+01 3.110741e+00
      vertex 1.123499e+01 -2.693927e+01 3.110741e+00
      vertex 1.180836e+01 -2.632380e+01 3.000000e+00
    endloop
  endfacet
  facet normal -8.897178e-02 -9.550463e-02 9.914448e-01
    outer loop
      vertex 7.259906e+00 -2.093686e+01 3.110741e+00
      vertex 6.686537e+00 -2.155233e+01 3.000000e+00
      vertex 1.238173e+01 -2.570833e+01 3.110741e+00
    endloop
  endfacet
  facet normal -8.897178e-02 -9.550463e-02 9.914448e-01
    outer loop
      vertex 6.686537e+00 -2.155233e+01 3.000000e+00
      vertex 1.180836e+01 -2.632380e+01 3.000000e+00
      vertex 1.238173e+01 -2.570833e+01 3.110741e+00
    endloop
  endfacet
  facet normal -2.608517e-01 -2.800051e-01 9.238796e-01
    outer loop
      vertex 7.794200e+00 -2.036334e+01 3.435417e+00
      vertex 7.259906e+00 -2.093686e+01 3.110741e+00
      vertex 1.291602e+01 -2.513481e+01 3.435417e+00
    endloop
  endfacet
  facet normal -2.608517e-01 -2.800051e-01 9.238796e-01
    outer loop
      vertex 7.259906e+00 -2.093686e+01 3.110741e+00
      vertex 1.238173e+01 -2.570833e+01 3.110741e+00
      vertex 1.291602e+01 -2.513481e+01 3.435417e+00
    endloop
  endfacet
  facet normal -4.149551e-01 -4.454237e-01 7.933536e-01
    outer loop
      vertex 7.794200e+00 -2.036334e+01 3.435417e+00
      vertex 1.291602e+01 -2.513481e+01 3.435417e+00
      vertex 8.253010e+00 -1.987084e+01 3.951903e+00
    endloop
  endfacet
  facet normal -4.149551e-01 -4.454237e-01 7.933536e-01
    outer loop
      vertex 8.253010e+00 -1.987084e+01 3.951903e+00
      vertex 1.291602e+01 -2.513481e+01 3.435417e+00
      vertex 1.337483e+01 -2.464231e+01 3.951903e+00
    endloop
  endfacet
  facet normal -5.407805e-01 -5.804880e-01 6.087611e-01
    outer loop
      vertex 8.253010e+00 -1.987084e+01 3.951903e+00
      vertex 1.337483e+01 -2.464231e+01 3.951903e+00
      vertex 8.605066e+00 -1.949293e+01 4.625000e+00
    endloop
  endfacet
  facet normal -6.816388e-01 -7.316889e-01 0.000000e+00
    outer loop
      vertex 1.402369e+01 -2.394581e+01 6.250000e+00
      vertex 8.901863e+00 -1.917434e+01 9.500000e+00
      vertex 8.901863e+00 -1.917434e+01 6.250000e+00
    endloop
  endfacet
  facet normal -6.816388e-01 -7.316889e-01 0.000000e+00
    outer loop
      vertex 1.402369e+01 -2.394581e+01 6.250000e+00
      vertex 1.402369e+01 -2.394581e+01 9.500000e+00
      vertex 8.901863e+00 -1.917434e+01 9.500000e+00
    endloop
  endfacet
  facet normal 0.000000e+00 0.000000e+00 1.000000e+00
    outer loop
      vertex 1.521655e+01 -2.266536e+01 9.500000e+00
      vertex 1.009473e+01 -1.789389e+01 9.500000e+00
      vertex 8.901863e+00 -1.917434e+01 9.500000e+00
    endloop
  endfacet
  facet normal 0.000000e+00 0.000000e+00 1.000000e+00
    outer loop
      vertex 1.521655e+01 -2.266536e+01 9.500000e+00
      vertex 8.901863e+00 -1.917434e+01 9.500000e+00
      vertex 1.402369e+01 -2.394581e+01 9.500000e+00
    endloop
  endfacet
  facet normal 6.816388e-01 7.316889e-01 0.000000e+00
    outer loop
      vertex 1.521655e+01 -2.266536e+01 2.000000e+00
      vertex 1.009473e+01 -1.789389e+01 2.000000e+00
      vertex 1.009473e+01 -1.789389e+01 9.500000e+00
    endloop
  endfacet
  facet normal 6.816388e-01 7.316889e-01 0.000000e+00
    outer loop
      vertex 1.521655e+01 -2.266536e+01 2.000000e+00
      vertex 1.009473e+01 -1.789389e+01 9.500000e+00
      vertex 1.521655e+01 -2.266536e+01 9.500000e+00
    endloop
  endfacet
  facet normal -7.316889e-01 6.816388e-01 0.000000e+00
    outer loop
      vertex -1.844113e+01 8.690025e+00 2.000000e+00
      vertex -2.028286e+01 6.713073e+00 3.951903e+00
      vertex -1.993080e+01 7.090980e+00 4.625000e+00
    endloop
  endfacet
  facet normal -7.316889e-01 6.816388e-01 0.000000e+00
    outer loop
      vertex -1.844113e+01 8.690025e+00 2.000000e+00
      vertex -1.993080e+01 7.090980e+00 4.625000e+00
      vertex -1.970949e+01 7.328542e+00 5.408838e+00
    endloop
  endfacet
  facet normal -7.316889e-01 6.816388e-01 0.000000e+00
    outer loop
      vertex -1.844113e+01 8.690025e+00 2.000000e+00
      vertex -1.970949e+01 7.328542e+00 5.408838e+00
      vertex -1.963400e+01 7.409569e+00 6.250000e+00
    endloop
  endfacet
  facet normal -7.316889e-01 6.816388e-01 0.000000e+00
    outer loop
      vertex -1.844113e+01 8.690025e+00 2.000000e+00
      vertex -1.963400e+01 7.409569e+00 6.250000e+00
      vertex -1.844113e+01 8.690025e+00 9.500000e+00
    endloop
  endfacet
  facet normal -7.316889e-01 6.816388e-01 0.000000e+00
    outer loop
      vertex -1.844113e+01 8.690025e+00 2.000000e+00
      vertex -2.525752e+01 1.373136e+00 2.000000e+00
      vertex -2.184933e+01 5.031581e+00 3.000000e+00
    endloop
  endfacet
  facet normal -7.316889e-01 6.816388e-01 0.000000e+00
    outer loop
      vertex -1.844113e+01 8.690025e+00 2.000000e+00
      vertex -2.184933e+01 5.031581e+00 3.000000e+00
      vertex -2.127596e+01 5.647049e+00 3.110741e+00
    endloop
  endfacet
  facet normal -7.316889e-01 6.816388e-01 0.000000e+00
    outer loop
      vertex -2.406465e+01 2.653592e+00 6.250000e+00
      vertex -2.525752e+01 1.373136e+00 9.500000e+00
      vertex -2.406465e+01 2.653592e+00 9.500000e+00
    endloop
  endfacet
  facet normal -7.316889e-01 6.816388e-01 0.000000e+00
    outer loop
      vertex -2.184933e+01 5.031581e+00 3.000000e+00
      vertex -2.525752e+01 1.373136e+00 2.000000e+00
      vertex -2.242270e+01 4.416112e+00 3.110741e+00
    endloop
  endfacet
  facet normal -7.316889e-01 6.816388e-01 0.000000e+00
    outer loop
      vertex -2.525752e+01 1.373136e+00 2.000000e+00
      vertex -2.406465e+01 2.653592e+00 6.250000e+00
      vertex -2.398917e+01 2.734620e+00 5.408838e+00
    endloop
  endfacet
  facet normal -7.316889e-01 6.816388e-01 0.000000e+00
    outer loop
      vertex -2.525752e+01 1.373136e+00 2.000000e+00
      vertex -2.398917e+01 2.734620e+00 5.408838e+00
      vertex -2.376786e+01 2.972182e+00 4.625000e+00
    endloop
  endfacet
  facet normal -7.316889e-01 6.816388e-01 0.000000e+00
    outer loop
      vertex -2.525752e+01 1.373136e+00 2.000000e+00
      vertex -2.525752e+01 1.373136e+00 9.500000e+00
      vertex -2.406465e+01 2.653592e+00 6.250000e+00
    endloop
  endfacet
  facet normal -7.316889e-01 6.816388e-01 0.000000e+00
    outer loop
      vertex -2.341580e+01 3.350089e+00 3.951903e+00
      vertex -2.525752e+01 1.373136e+00 2.000000e+00
      vertex -2.376786e+01 2.972182e+00 4.625000e+00
    endloop
  endfacet
  facet normal -7.316889e-01 6.816388e-01 0.000000e+00
    outer loop
      vertex -2.295699e+01 3.842586e+00 3.435417e+00
      vertex -2.525752e+01 1.373136e+00 2.000000e+00
      vertex -2.341580e+01 3.350089e+00 3.951903e+00
    endloop
  endfacet
  facet normal -7.316889e-01 6.816388e-01 0.000000e+00
    outer loop
      vertex -2.242270e+01 4.416112e+00 3.110741e+00
      vertex -2.525752e+01 1.373136e+00 2.000000e+00
      vertex -2.295699e+01 3.842586e+00 3.435417e+00
    endloop
  endfacet
  facet normal -7.316889e-01 6.816388e-01 0.000000e+00
    outer loop
      vertex -1.963400e+01 7.409569e+00 6.250000e+00
      vertex -1.963400e+01 7.409569e+00 9.500000e+00
      vertex -1.844113e+01 8.690025e+00 9.500000e+00
    endloop
  endfacet
  facet normal -7.316889e-01 6.816388e-01 0.000000e+00
    outer loop
      vertex -1.844113e+01 8.690025e+00 2.000000e+00
      vertex -2.127596e+01 5.647049e+00 3.110741e+00
      vertex -2.074167e+01 6.220575e+00 3.435417e+00
    endloop
  endfacet
  facet normal -7.316889e-01 6.816388e-01 0.000000e+00
    outer loop
      vertex -1.844113e+01 8.690025e+00 2.000000e+00
      vertex -2.074167e+01 6.220575e+00 3.435417e+00
      vertex -2.028286e+01 6.713073e+00 3.951903e+00
    endloop
  endfacet
  facet normal -7.316889e-01 6.816388e-01 0.000000e+00
    outer loop
      vertex 1.905257e+01 1.886216e+01 2.000000e+00
      vertex 1.564437e+01 1.520372e+01 2.000000e+00
      vertex 1.564437e+01 1.520372e+01 7.000000e+00
    endloop
  endfacet
  facet normal -7.316889e-01 6.816388e-01 0.000000e+00
    outer loop
      vertex 1.905257e+01 1.886216e+01 2.000000e+00
      vertex 1.564437e+01 1.520372e+01 7.000000e+00
      vertex 1.905257e+01 1.886216e+01 7.000000e+00
    endloop
  endfacet
  facet normal -6.816388e-01 -7.316889e-01 0.000000e+00
    outer loop
      vertex 1.564437e+01 1.520372e+01 2.000000e+00
      vertex 1.930282e+01 1.179552e+01 2.000000e+00
      vertex 1.930282e+01 1.179552e+01 7.000000e+00
    endloop
  endfacet
  facet normal -6.816388e-01 -7.316889e-01 0.000000e+00
    outer loop
      vertex 1.564437e+01 1.520372e+01 2.000000e+00
      vertex 1.930282e+01 1.179552e+01 7.000000e+00
      vertex 1.564437e+01 1.520372e+01 7.000000e+00
    endloop
  endfacet
  facet normal 7.316889e-01 -6.816388e-01 0.000000e+00
    outer loop
      vertex 1.930282e+01 1.179552e+01 2.000000e+00
      vertex 2.271101e+01 1.545397e+01 2.000000e+00
      vertex 2.271101e+01 1.545397e+01 7.000000e+00
    endloop
  endfacet
  facet normal 7.316889e-01 -6.816388e-01 0.000000e+00
    outer loop
      vertex 1.930282e+01 1.179552e+01 2.000000e+00
      vertex 2.271101e+01 1.545397e+01 7.000000e+00
      vertex 1.930282e+01 1.179552e+01 7.000000e+00
    endloop
  endfacet
  facet normal 7.316889e-01 -6.816388e-01 0.000000e+00
    outer loop
      vertex 8.400166e+00 -2.998225e+01 2.000000e+00
      vertex 9.593034e+00 -2.870179e+01 6.250000e+00
      vertex 8.400166e+00 -2.998225e+01 9.500000e+00
    endloop
  endfacet
  facet normal 7.316889e-01 -6.816388e-01 0.000000e+00
    outer loop
      vertex 8.400166e+00 -2.998225e+01 2.000000e+00
      vertex 1.521655e+01 -2.266536e+01 2.000000e+00
      vertex 1.180836e+01 -2.632380e+01 3.000000e+00
    endloop
  endfacet
  facet normal 7.316889e-01 -6.816388e-01 0.000000e+00
    outer loop
      vertex 8.400166e+00 -2.998225e+01 2.000000e+00
      vertex 1.180836e+01 -2.632380e+01 3.000000e+00
      vertex 1.123499e+01 -2.693927e+01 3.110741e+00
    endloop
  endfacet
  facet normal 7.316889e-01 -6.816388e-01 0.000000e+00
    outer loop
      vertex 1.180836e+01 -2.632380e+01 3.000000e+00
      vertex 1.521655e+01 -2.266536e+01 2.000000e+00
      vertex 1.238173e+01 -2.570833e+01 3.110741e+00
    endloop
  endfacet
  facet normal 7.316889e-01 -6.816388e-01 0.000000e+00
    outer loop
      vertex 1.402369e+01 -2.394581e+01 6.250000e+00
      vertex 1.521655e+01 -2.266536e+01 9.500000e+00
      vertex 1.402369e+01 -2.394581e+01 9.500000e+00
    endloop
  endfacet
  facet normal 7.316889e-01 -6.816388e-01 0.000000e+00
    outer loop
      vertex 1.521655e+01 -2.266536e+01 2.000000e+00
      vertex 1.394820e+01 -2.402684e+01 5.408838e+00
      vertex 1.372689e+01 -2.426440e+01 4.625000e+00
    endloop
  endfacet
  facet normal 7.316889e-01 -6.816388e-01 0.000000e+00
    outer loop
      vertex 1.521655e+01 -2.266536e+01 2.000000e+00
      vertex 1.402369e+01 -2.394581e+01 6.250000e+00
      vertex 1.394820e+01 -2.402684e+01 5.408838e+00
    endloop
  endfacet
  facet normal 7.316889e-01 -6.816388e-01 0.000000e+00
    outer loop
      vertex 1.521655e+01 -2.266536e+01 2.000000e+00
      vertex 1.521655e+01 -2.266536e+01 9.500000e+00
      vertex 1.402369e+01 -2.394581e+01 6.250000e+00
    endloop
  endfacet
  facet normal 7.316889e-01 -6.816388e-01 0.000000e+00
    outer loop
      vertex 1.337483e+01 -2.464231e+01 3.951903e+00
      vertex 1.521655e+01 -2.266536e+01 2.000000e+00
      vertex 1.372689e+01 -2.426440e+01 4.625000e+00
    endloop
  endfacet
  facet normal 7.316889e-01 -6.816388e-01 0.000000e+00
    outer loop
      vertex 1.291602e+01 -2.513481e+01 3.435417e+00
      vertex 1.521655e+01 -2.266536e+01 2.000000e+00
      vertex 1.337483e+01 -2.464231e+01 3.951903e+00
    endloop
  endfacet
  facet normal 7.316889e-01 -6.816388e-01 0.000000e+00
    outer loop
      vertex 1.238173e+01 -2.570833e+01 3.110741e+00
      vertex 1.521655e+01 -2.266536e+01 2.000000e+00
      vertex 1.291602e+01 -2.513481e+01 3.435417e+00
    endloop
  endfacet
  facet normal 7.316889e-01 -6.816388e-01 0.000000e+00
    outer loop
      vertex 9.593034e+00 -2.870179e+01 6.250000e+00
      vertex 9.593034e+00 -2.870179e+01 9.500000e+00
      vertex 8.400166e+00 -2.998225e+01 9.500000e+00
    endloop
  endfacet
  facet normal 7.316889e-01 -6.816388e-01 0.000000e+00
    outer loop
      vertex 8.400166e+00 -2.998225e+01 2.000000e+00
      vertex 9.668519e+00 -2.862076e+01 5.408838e+00
      vertex 9.593034e+00 -2.870179e+01 6.250000e+00
    endloop
  endfacet
  facet normal 7.316889e-01 -6.816388e-01 0.000000e+00
    outer loop
      vertex 8.400166e+00 -2.998225e+01 2.000000e+00
      vertex 9.889831e+00 -2.838320e+01 4.625000e+00
      vertex 9.668519e+00 -2.862076e+01 5.408838e+00
    endloop
  endfacet
  facet normal 7.316889e-01 -6.816388e-01 0.000000e+00
    outer loop
      vertex 8.400166e+00 -2.998225e+01 2.000000e+00
      vertex 1.024189e+01 -2.800529e+01 3.951903e+00
      vertex 9.889831e+00 -2.838320e+01 4.625000e+00
    endloop
  endfacet
  facet normal 7.316889e-01 -6.816388e-01 0.000000e+00
    outer loop
      vertex 8.400166e+00 -2.998225e+01 2.000000e+00
      vertex 1.070070e+01 -2.751280e+01 3.435417e+00
      vertex 1.024189e+01 -2.800529e+01 3.951903e+00
    endloop
  endfacet
  facet normal 7.316889e-01 -6.816388e-01 0.000000e+00
    outer loop
      vertex 8.400166e+00 -2.998225e+01 2.000000e+00
      vertex 1.123499e+01 -2.693927e+01 3.110741e+00
      vertex 1.070070e+01 -2.751280e+01 3.435417e+00
    endloop
  endfacet
  facet normal 0.000000e+00 0.000000e+00 1.000000e+00
    outer loop
      vertex 2.271101e+01 1.545397e+01 7.000000e+00
      vertex 1.905257e+01 1.886216e+01 7.000000e+00
      vertex 1.564437e+01 1.520372e+01 7.000000e+00
    endloop
  endfacet
  facet normal 0.000000e+00 0.000000e+00 1.000000e+00
    outer loop
      vertex 2.271101e+01 1.545397e+01 7.000000e+00
      vertex 1.564437e+01 1.520372e+01 7.000000e+00
      vertex 1.930282e+01 1.179552e+01 7.000000e+00
    endloop
  endfacet
endsolid Default
